<?xml version="1.0" encoding="UTF-8"?><svg id="Font" xmlns="http://www.w3.org/2000/svg" viewBox="0 0 607.5 397"><defs><style>.cls-1{fill:#f2bb30;}.cls-2{font-family:Magion, Magion;font-size:72.17px;}</style></defs><path class="cls-1" d="M456.73,259.5c-4.7-87.26-73.74-156.5-158.24-156.5s-153.53,69.24-158.24,156.5H456.73Z"/><rect class="cls-1" x="294" width="17" height="87" rx="7.48" ry="7.48"/><rect class="cls-1" x="208" y="17" width="17" height="87" rx="7.48" ry="7.48" transform="translate(-3.72 105.6) rotate(-27.19)"/><rect class="cls-1" x="144" y="59" width="17" height="87" rx="7.48" ry="7.48" transform="translate(-27.55 139.18) rotate(-45.42)"/><rect class="cls-1" x="95" y="122" width="17" height="87" rx="7.48" ry="7.48" transform="translate(-82.71 224.06) rotate(-75.44)"/><rect class="cls-1" x="73" y="198" width="17" height="87" rx="7.48" ry="7.48" transform="translate(-162.05 316.67) rotate(-88.5)"/><rect class="cls-1" x="382.33" y="18" width="17" height="87" rx="7.48" ry="7.48" transform="translate(710.38 294.76) rotate(-152.81)"/><rect class="cls-1" x="446.33" y="60" width="17" height="87" rx="7.48" ry="7.48" transform="translate(700.34 500.11) rotate(-134.58)"/><rect class="cls-1" x="495.33" y="123" width="17" height="87" rx="7.48" ry="7.48" transform="translate(469.36 696.01) rotate(-104.56)"/><rect class="cls-1" x="517.33" y="199" width="17" height="87" rx="7.48" ry="7.48" transform="translate(297.14 774.48) rotate(-91.5)"/><rect class="cls-1" x="289.5" y="196.5" width="15.5" height="291.5" rx="7.75" ry="7.75" transform="translate(639.5 45) rotate(90)"/><rect class="cls-1" x="291.5" y="240.5" width="16" height="249" rx="7.28" ry="7.28" transform="translate(664.5 65.5) rotate(90)"/><rect class="cls-1" x="293.5" y="285.5" width="14.5" height="208.5" rx="6.34" ry="6.34" transform="translate(690.5 89) rotate(90)"/><text class="cls-2" transform="translate(0 323.63) scale(.75 1)"><tspan x="0" y="0">NEGRILSUN ADVENTURES</tspan></text></svg>